#!OML:ASF F:\VICON\USERDATA\INSTALL\rory3\rory3.ASF
:FULLY-SPECIFIED
:DEGREES
28
root -0.36390520437975615 17.632108121809253 -1.8123445481599276 4.187504089971152 1.2148627212665164 -0.2701909252141954
lfemur 2.724863861752949 0.7631692563505159 -25.868041982656145
ltibia 39.218277404640176
lfoot -9.160425072479995 -2.6879377852202824
ltoes -25.654174813488943
rfemur -50.06850599662749 -3.6862079225102566 22.93435680066704
rtibia 93.63465462367289
rfoot -0.9978100823505169 -3.9226079196532577
rtoes -0.443674743734745
lowerback 16.186923177148223 -0.6030636468472603 -3.438249913932731
upperback -1.0068648085387901 -1.2904502985208564 1.3249007133945723
thorax -10.236117850368828 -0.3724250634835885 4.220102837777813
lowerneck -22.557595508934376 -2.8243202963250895 -1.425269363502121
upperneck 13.133134867458782 -3.995318042514807 2.9078481595834287
head 7.709814017124966 -1.6278975666192455 0.7496362094211169
lclavicle -3.1699602739514953e-15 7.383534869249614e-16
lhumerus -34.16139833359337 -19.531266588991343 96.98719153347538
lradius 118.62970772843137
lwrist 36.57373886559257
lhand -24.857011035306403 1.3894195214366785
lfingers 7.12502
lthumb 1.6496247166363884 31.348324524010895
rclavicle -3.1699602739514953e-15 7.383534869249614e-16
rhumerus -61.40220909232413 7.287266810841177 -100.29962072458426
rradius 107.02136803237902
rwrist -13.29080154656928
rhand -15.455480967708498 39.41550483881964
rfingers 7.12502
rthumb 10.725137521974194 9.361901508669051
29
root -0.36336204649972187 17.84925312190029 -2.5371327325446096 4.578264649928737 0.23317624361427258 -0.7237925931034352
lfemur 5.732937335093505 0.5997993296023041 -25.795683004191382
ltibia 34.752846524462235
lfoot -2.5789796108660754 -5.553075952002237
ltoes -28.24188077319772
rfemur -50.73332287023576 -2.2210660504604305 23.49434405629688
rtibia 84.06068688407964
rfoot -1.4446901923155604 -3.2624792827087274
rtoes -4.133544714437132
lowerback 15.594025516355467 -0.825312971070514 -3.2344184010535644
upperback -1.3364690897154299 -1.5138351746426637 1.6581978620501874
thorax -10.164001889710013 -0.47653505795212026 4.349592078020046
lowerneck -22.453548309738814 -2.6508061626994857 -1.48770550384342
upperneck 13.426566008422784 -3.7173564794754768 2.684145670587441
head 7.76551085604196 -1.5217375252178205 0.7012483187243138
lclavicle -3.849834723434902e-15 2.452349046090687e-16
lhumerus -34.6923537866417 -18.78979484514904 96.07739318089908
lradius 120.31671538019836
lwrist 36.95813221607547
lhand -24.71922917314826 1.4745817100641108
lfingers 7.12502
lthumb 1.782655751859019 31.42450869849234
rclavicle -3.849834723434902e-15 2.452349046090687e-16
rhumerus -63.03449185473032 6.860841389757196 -99.8576508696488
rradius 107.68431836132511
rwrist -13.12148341820534
rhand -15.338424383268666 39.30439213598529
rfingers 7.12502
rthumb 10.83809869239529 9.270367515444875
30
root -0.3172891896123636 18.061331191906593 -0.9017593448441996 4.856409495177086 -0.5167240859296268 -0.9767651944074243
lfemur 8.894907309455396 0.32791553643079513 -25.627793514905186
ltibia 31.984908156680426
lfoot 5.165518665941905 -8.378004575070582
ltoes -27.492145554816318
rfemur -49.94519417837589 -0.8100881460016696 24.087278583446473
rtibia 73.00500912003395
rfoot -1.460474578127803 -1.9949076846690348
rtoes -7.626698983818319
lowerback 15.204688169729787 -0.9986773642609892 -2.887146819422181
upperback -1.638496118309665 -1.6437290417216595 1.987186020230093
thorax -10.118163256438814 -0.5458464605085057 4.507730913238941
lowerneck -22.278511277878902 -2.4533805215795113 -1.573987441619318
upperneck 13.69504469273316 -3.3803323120844424 2.4657862094631073
head 7.814162549258144 -1.3900939375418337 0.6615560293007197
lclavicle -3.724709719771606e-15 3.3598356345834524e-16
lhumerus -34.99561297254693 -18.446029306117097 95.30603126691081
lradius 121.56503373397584
lwrist 36.83199902200509
lhand -24.225401398310716 1.3500118044734415
lfingers 7.12502
lthumb 2.259558631736399 31.296181236682
rclavicle -3.724709719771606e-15 3.3598356345834524e-16
rhumerus -64.23245377331578 6.33925539222302 -98.93830905353691
rradius 108.61594074702663
rwrist -12.943631890561457
rhand -15.307585527490362 39.31049811747104
rfingers 7.12502
rthumb 10.86782146281477 9.254011922194104
31
root -0.2808442109794469 18.291997433301262 1.2481239774678077 5.1642238319769795 -1.1999601807137972 -1.0495354286763119
lfemur 12.478074958583791 -0.7457214477433944 -25.89427691341459
ltibia 29.331039906102227
lfoot 12.739192219479929 -11.020261566943892
ltoes -25.359984853522086
rfemur -49.65049492755121 0.021605950909699856 24.62869971816812
rtibia 62.94918718241236
rfoot -0.6668591261074397 -1.245257321871554
rtoes -9.90233269249534
lowerback 14.74718549843681 -1.1974948901367517 -2.60896431160043
upperback -1.8433967834799345 -1.842816892652475 2.2306034193908215
thorax -9.990361167284806 -0.6452359907091899 4.653583301128932
lowerneck -22.135272005232512 -2.2801525705770795 -1.6521389681055054
upperneck 13.989801139564317 -3.0975283618271723 2.2874921659972394
head 7.882140516415865 -1.274890415660888 0.6234620568991741
lclavicle -3.443031955387205e-15 5.402919798205426e-16
lhumerus -34.890737390440094 -18.745526646280553 94.78948154972224
lradius 122.64447146724665
lwrist 36.485380136672234
lhand -23.812580541878923 1.4109468136936085
lfingers 7.12502
lthumb 2.658254220408911 31.35633910617594
rclavicle -3.443031955387205e-15 5.402919798205426e-16
rhumerus -65.7756644824065 5.166029773403484 -97.82343956646372
rradius 109.52587920711564
rwrist -12.354030405630489
rhand -15.44433738513767 39.45805974681201
rfingers 7.12502
rthumb 10.735854930802185 9.434025386709536
32
root -0.2252187629969952 18.467586286316724 3.4602314117193815 5.363280884531931 -1.6913898514268175 -0.9330031481555394
lfemur 14.759424682430152 -1.7653023552483544 -26.30989414068224
ltibia 29.47928218866616
lfoot 19.06891826331335 -13.133807192974658
ltoes -21.6684105198132
rfemur -48.40253019655394 0.4019137757185244 25.096184865829336
rtibia 52.8349341538843
rfoot 0.5342378086108468 -0.9265275294928443
rtoes -12.809340537599475
lowerback 14.461852506503762 -1.4094411993887457 -2.3914306340625666
upperback -2.036551576554752 -2.079938072595433 2.416815881547664
thorax -9.924467843768477 -0.7604094082424534 4.782517482804516
lowerneck -22.03271149139618 -2.070545203712777 -1.7129351702173148
upperneck 14.25328031726715 -2.7632433210168963 2.1012399738597445
head 7.941702111989264 -1.1378670220263958 0.5848499573373873
lclavicle -3.1379206717851553e-15 7.615755465437366e-16
lhumerus -35.1795368413526 -18.992128441556805 94.37187083571037
lradius 122.86538168535185
lwrist 35.73278622031867
lhand -23.899308569985166 0.9691571723458461
lfingers 7.12502
lthumb 2.574525838474988 30.920737617670145
rclavicle -3.1379206717851553e-15 7.615755465437366e-16
rhumerus -66.81742486245383 4.177145651580782 -96.70362098281423
rradius 110.34561421718603
rwrist -11.580273877533333
rhand -15.405356343890325 39.690713810075316
rfingers 7.12502
rthumb 10.773418836838037 9.691248179781747
33
root -0.18851588166144675 18.605294762017188 4.686297283892062 5.530881089416964 -1.9650179909843235 -0.7362036932244433
lfemur 15.927360282416819 -2.7529803604401737 -26.771952181712635
ltibia 31.5172716688621
lfoot 22.869937719315853 -14.772823935535314
ltoes -18.112383263897165
rfemur -47.459901754045646 0.8383864535182748 25.3679651698846
rtibia 42.26338259911617
rfoot 1.1771334993597984 -1.0642251602022146
rtoes -14.609026060265435
lowerback 14.273936854914007 -1.646722828640597 -2.2743931350823363
upperback -2.1271026499274903 -2.3751432371428396 2.4849872025053212
thorax -9.839539971710689 -0.9005607392597487 4.824065399625007
lowerneck -21.977387921345922 -1.9956057870673767 -1.7969342060947562
upperneck 14.435208676286452 -2.595752477232957 1.953257311467398
head 7.980159940875442 -1.0830621887759557 0.5562654652609478
lclavicle -3.10776182501625e-15 7.834324685557183e-16
lhumerus -35.25606356866113 -19.781031628030387 94.24157706332915
lradius 122.39997358310235
lwrist 35.05888629592545
lhand -23.866986161742396 0.9861035794202293
lfingers 7.12502
lthumb 2.605781100231777 30.944403388577957
rclavicle -3.10776182501625e-15 7.834324685557183e-16
rhumerus -67.51869464441842 2.9000173413012673 -95.66105343230993
rradius 110.9861296437736
rwrist -10.760578504433438
rhand -15.414498560835014 39.927091351397685
rfingers 7.12502
rthumb 10.764523087536038 9.92970354160871
34
root -0.1080015574442498 18.715429345419395 7.925361189351209 5.571889966201404 -1.9393911520026688 -0.25625858995505846
lfemur 17.471982279659365 -4.041039139290828 -27.252385518605877
ltibia 33.89234964065672
lfoot 25.44673509378199 -15.822108311579374
ltoes -14.107191739564552
rfemur -44.585424935852636 0.8380794599824832 25.612519522957076
rtibia 34.660173034339
rfoot 3.05389185728522 -1.398162959935366
rtoes -14.498376952981218
lowerback 14.17371945916092 -1.7514505665413709 -2.098111308099016
upperback -2.104246154825779 -2.5100837146482604 2.445339023841105
thorax -9.677778283959148 -0.9737564003260927 4.870938991528086
lowerneck -21.891904058812944 -1.9717324850106843 -1.870725932478825
upperneck 14.530172522358239 -2.4914342569194865 1.9104442714630316
head 7.999275154400726 -1.059024721599193 0.5563393709312116
lclavicle -1.9708449323550083e-15 1.608079058865945e-15
lhumerus -35.10162061578134 -20.126857005224917 94.25489552126987
lradius 121.45096629166918
lwrist 34.65081656348746
lhand -23.831394152386746 1.0782815684059877
lfingers 7.12502
lthumb 2.6401973058792145 31.0468464898086
rclavicle -1.9708449323550083e-15 1.608079058865945e-15
rhumerus -67.41812634952856 1.7274333170550307 -94.77149351580101
rradius 111.97225973890909
rwrist -10.000356176730657
rhand -15.403627518069436 40.07284218775912
rfingers 7.12502
rthumb 10.774942363089057 10.143628027017229
